<svg width="20.000000" height="18.420898" viewBox="0 0 20 18.4209" fill="none" xmlns="http://www.w3.org/2000/svg" xmlns:xlink="http://www.w3.org/1999/xlink">
	<desc>
			Created with Pixso.
	</desc>
	<defs/>
	<path id="Vector" d="M20 6.57886L16.6038 6.57886L13.0359 0.319336C12.8589 0.00830078 12.4749 -0.0932617 12.1785 0.09375C11.8823 0.280762 11.7866 0.684814 11.9641 0.996582L15.1462 6.57886L4.85376 6.57886L8.03589 0.996338C8.21338 0.684814 8.11768 0.280762 7.82153 0.09375C7.52441 -0.0932617 7.14185 0.00830078 6.96411 0.319336L3.39624 6.57886L0 6.57886L0 7.89478L1.35645 7.89478L2.94434 16.8103C3.11035 17.7439 3.8855 18.4209 4.7876 18.4209L15.2124 18.4209C16.1145 18.4209 16.8896 17.7439 17.0549 16.811L18.6433 7.89478L20 7.89478C20 7.89478 20 6.57886 20 6.57886ZM15.8264 16.5688C15.7715 16.8796 15.5132 17.1052 15.2124 17.1052L4.7876 17.1052C4.48682 17.1052 4.22852 16.8796 4.1731 16.5681L2.62793 7.89478L17.3721 7.89478L15.8264 16.5688Z" fill="#FFFFFF" fill-opacity="1.000000" fill-rule="nonzero"/>
</svg>
