<svg  viewBox="0 0 23.4667 23.3456" fill="none" xmlns="http://www.w3.org/2000/svg" xmlns:xlink="http://www.w3.org/1999/xlink">
	<desc>
			Created with Pixso.
	</desc>
	<defs/>
	<path id="Shape" d="M6.89636 0.0705566C8.14746 0.013916 8.54749 0 11.7307 0L11.7344 0C14.9187 0 15.3173 0.013916 16.5684 0.0705566C17.8175 0.127441 18.6707 0.324219 19.4186 0.612793C20.191 0.910767 20.8438 1.30957 21.4965 1.95886C22.149 2.60767 22.55 3.25891 22.8507 4.02661C23.1392 4.7688 23.3372 5.61707 23.3958 6.85974C23.452 8.10474 23.4667 8.50269 23.4667 11.6727C23.4667 14.8429 23.452 15.2397 23.3958 16.4849C23.3372 17.7271 23.1392 18.5756 22.8507 19.318C22.55 20.0854 22.149 20.7367 21.4965 21.3855C20.8445 22.0348 20.1908 22.4346 19.4193 22.7327C18.6729 23.0214 17.8192 23.2181 16.5701 23.275C15.3185 23.3317 14.9198 23.3456 11.7329 23.3456C8.54663 23.3456 8.14697 23.3317 6.89539 23.275C5.64648 23.2181 4.79358 23.0214 4.04712 22.7327C3.27588 22.4346 2.62122 22.0348 1.96924 21.3855C1.31689 20.7367 0.915894 20.0854 0.615967 19.3177C0.32605 18.5756 0.128296 17.7273 0.0709229 16.4846C0.0141602 15.2395 0 14.8429 0 11.6727C0 8.50269 0.0146484 8.10449 0.0706787 6.8595C0.126831 5.61731 0.324829 4.7688 0.615723 4.02637C0.916382 3.25891 1.31738 2.60767 1.96997 1.95886C2.62219 1.30981 3.27686 0.911011 4.04858 0.612793C4.79456 0.324219 5.64722 0.127441 6.89636 0.0705566ZM11.343 2.10376L11.3435 2.10376C11.4689 2.10376 11.5992 2.10376 11.7346 2.10376C14.8674 2.10376 15.2388 2.11499 16.4758 2.1709C17.6199 2.22302 18.2408 2.41309 18.6544 2.57288C19.2019 2.78455 19.5923 3.03735 20.0028 3.44592C20.4135 3.85449 20.6676 4.24353 20.8809 4.78833C21.0414 5.19934 21.2328 5.81702 21.2849 6.95508C21.3411 8.18555 21.3533 8.55518 21.3533 11.6704C21.3533 14.7855 21.3411 15.1552 21.2849 16.3857C21.2325 17.5238 21.0414 18.1415 20.8809 18.5525C20.6681 19.0972 20.4135 19.4851 20.0028 19.8933C19.592 20.3019 19.2021 20.5548 18.6544 20.7664C18.2413 20.9269 17.6199 21.1166 16.4758 21.1686C15.239 21.2245 14.8674 21.2367 11.7346 21.2367C8.60156 21.2367 8.23022 21.2245 6.99329 21.1686C5.84924 21.1161 5.22839 20.9259 4.81458 20.7661C4.26697 20.5546 3.87585 20.3016 3.46521 19.8931C3.05457 19.4846 2.80029 19.0964 2.58716 18.5515C2.42651 18.1405 2.23511 17.5228 2.18311 16.3848C2.12683 15.1542 2.1156 14.7845 2.1156 11.6675C2.1156 8.55029 2.12683 8.18262 2.18311 6.95215C2.23535 5.81409 2.42651 5.19641 2.58716 4.78491C2.7998 4.24023 3.05457 3.85107 3.46521 3.4425C3.87585 3.03394 4.26697 2.78113 4.81458 2.56897C5.22815 2.40857 5.84924 2.21887 6.99329 2.1665C8.07568 2.11792 8.49512 2.10327 10.682 2.10095L10.682 2.10376C10.8862 2.10352 11.1058 2.10364 11.3428 2.10376L11.343 2.10376ZM16.5897 5.44202C16.5897 4.66846 17.2203 4.04175 17.9977 4.04175L17.9977 4.04126C18.775 4.04126 19.4058 4.6687 19.4058 5.44202C19.4058 6.21533 18.775 6.84277 17.9977 6.84277C17.2203 6.84277 16.5897 6.21533 16.5897 5.44202ZM11.7343 5.67859C8.40674 5.67871 5.70886 8.36267 5.70886 11.673C5.70886 14.9834 8.40686 17.6663 11.7345 17.6663C15.0621 17.6663 17.7592 14.9834 17.7592 11.673C17.7592 8.36255 15.0619 5.67859 11.7343 5.67859ZM15.6458 11.673C15.6458 9.52405 13.8945 7.7821 11.7346 7.7821C9.57446 7.7821 7.82349 9.52405 7.82349 11.673C7.82349 13.8218 9.57446 15.564 11.7346 15.564C13.8945 15.564 15.6458 13.8218 15.6458 11.673Z" clip-rule="evenodd" fill="#FFFFFF" fill-opacity="1.000000" fill-rule="evenodd"/>
</svg>
