<!DOCTYPE svg PUBLIC "-//W3C//DTD SVG 1.1//EN" "http://www.w3.org/Graphics/SVG/1.1/DTD/svg11.dtd">

<!-- Uploaded to: SVG Repo, www.svgrepo.com, Transformed by: SVG Repo Mixer Tools -->
<svg fill="#fff"  viewBox="-25.6 -25.6 307.20 307.20" id="Flat" xmlns="http://www.w3.org/2000/svg" stroke="#000000" stroke-width="0.00256" transform="matrix(1, 0, 0, 1, 0, 0)rotate(0)">

<g id="SVGRepo_bgCarrier" stroke-width="0"/>

<g id="SVGRepo_tracerCarrier" stroke-linecap="round" stroke-linejoin="round" stroke="#CCCCCC" stroke-width="8.192"/>

<g id="SVGRepo_iconCarrier"> <path d="M233.86621,28.7051a19.95058,19.95058,0,0,0-20.36328-3.459L28.94629,97.751a19.99924,19.99924,0,0,0,3.39062,38.22558L76,144.71V199.9844a19.99269,19.99269,0,0,0,34.14209,14.1416l23.28906-23.28882,36.55908,32.17261a19.834,19.834,0,0,0,13.14649,5.00195,20.20114,20.20114,0,0,0,6.2041-.9834,19.83327,19.83327,0,0,0,13.35645-14.5664L240.31055,48.32912A19.95249,19.95249,0,0,0,233.86621,28.7051ZM147.9126,76.79934,85.21826,122.07839l-34.82861-6.96606ZM100,190.32717V161.41726l15.37744,13.53247Zm80.80371,10.22754L107.21582,135.7969,213.18164,59.26613Z"/> </g>

</svg>